<svg width="140" height="50" viewBox="0 0 387.6086956521739 94.64681133140125" class="looka-1j8o68f">
    <defs id="SvgjsDefs5632"></defs>
    <g id="SvgjsG5633" featurekey="7KWit6-0"
        transform="matrix(9.189723320158102,0,0,9.189723320158102,-9.189723320158102,-25.793528439970352)"
        fill="#111111">
        <g xmlns="http://www.w3.org/2000/svg" transform="translate(0,-1036.3622)">
            <path
                d="M 2.41406,1039.3866 1,1040.8026 4.53515,1044.3378 1,1047.873 l 1.41601,1.416 3.53321,-3.5352 1.41601,-1.416 -1.41601,-1.4141 z M 8,1047.3378 l 0,2 7,0 0,-2 z">
            </path>
        </g>
    </g>
    <g id="SvgjsG5634" featurekey="ewgXDI-0"
        transform="matrix(3.320489969363773,0,0,3.320489969363773,145.61310266958176,-19.45807008047195)"
        fill="#e11d48">
        <path
            d="M6.86 9.42 c2.38 0 5.12 1.78 5.12 5.36 c0 3.72 -2.74 5.42 -5.12 5.42 c-1.6 0 -2.54 -0.88 -2.68 -1.24 l0 4.84 l-3.16 0 l0 -6.02 l0 -8.18 l3.16 0 l0 0.96 c0.14 -0.22 1.08 -1.14 2.68 -1.14 z M6.4 17.42 c1.36 0 2.52 -0.92 2.52 -2.64 c0 -1.66 -1.16 -2.58 -2.52 -2.58 c-1.3 0 -2.36 0.9 -2.36 2.58 c0 1.74 1.06 2.64 2.36 2.64 z M21.18 9.6 l3.16 0 l0 10.4 l-3.16 0 l0 -1.04 c-0.14 0.36 -1.08 1.24 -2.68 1.24 c-2.38 0 -5.12 -1.7 -5.12 -5.42 c0 -3.58 2.74 -5.36 5.12 -5.36 c1.6 0 2.54 0.92 2.68 1.14 l0 -0.96 z M18.96 17.42 c1.3 0 2.36 -0.9 2.36 -2.64 c0 -1.68 -1.06 -2.58 -2.36 -2.58 c-1.36 0 -2.52 0.92 -2.52 2.58 c0 1.72 1.16 2.64 2.52 2.64 z M34.82 9.56 l3.14 0 l-6.36 14.24 l-3.16 0 l1.92 -4.16 l-4.5 -10.08 l3.14 0 l2.92 6.68 z M42.64 5.859999999999999 l0 14.14 l-3.16 0 l0 -14.14 l3.16 0 z M49.84 9.42 c2.36 0 5.48 1.78 5.48 5.42 c0 3.66 -3.12 5.36 -5.48 5.36 s-5.48 -1.7 -5.48 -5.36 c0 -3.64 3.12 -5.42 5.48 -5.42 z M49.84 12.2 c-1.2 0 -2.42 0.92 -2.42 2.64 c0 1.66 1.22 2.58 2.42 2.58 s2.44 -0.92 2.44 -2.58 c0 -1.72 -1.24 -2.64 -2.44 -2.64 z M64.52000000000001 9.6 l3.16 0 l0 10.4 l0 3.8 l-3.16 0 l0 -4.84 c-0.14 0.36 -1.08 1.24 -2.68 1.24 c-2.38 0 -5.12 -1.7 -5.12 -5.42 c0 -3.58 2.74 -5.36 5.12 -5.36 c1.6 0 2.54 0.92 2.68 1.14 l0 -0.96 z M62.300000000000004 17.42 c1.3 0 2.36 -0.9 2.36 -2.64 c0 -1.68 -1.06 -2.58 -2.36 -2.58 c-1.36 0 -2.52 0.92 -2.52 2.58 c0 1.72 1.16 2.64 2.52 2.64 z">
        </path>
    </g>
    <g id="SvgjsG5635" featurekey="sloganFeature-0"
        transform="matrix(1.7235531020245636,0,0,1.7235531020245636,147.62115801149284,59.65868467526927)"
        fill="#000000">
        <path
            d="M10.82 6 l0 2.96 l-3.4 0 l0 11.04 l-3.22 0 l0 -11.04 l-3.4 0 l0 -2.96 l10.02 0 z M24.12 20 l-2.86 -4.58 l-1.72 0 l0 4.58 l-3.22 0 l0 -14 l4.98 0 c3.14 0 5.22 1.9 5.22 4.82 c0 1.86 -0.88 3.26 -2.36 3.98 l3.36 5.2 l-3.4 0 z M19.54 8.96 l0 3.72 l1.56 0 c1.3 0 2.2 -0.46 2.2 -1.86 c0 -1.38 -0.9 -1.86 -2.2 -1.86 l-1.56 0 z M40.58 6 l3.22 0 l0 8.92 c0 3.38 -2.52 5.38 -5.48 5.38 c-2.98 0 -5.5 -2 -5.5 -5.38 l0 -8.92 l3.22 0 l0 8.94 c0 1.92 1.3 2.34 2.28 2.34 s2.26 -0.42 2.26 -2.34 l0 -8.94 z M52.92 17.04 l5.74 0 l0 2.96 l-6.14 0 l-2.82 0 l0 -14 l3.22 0 l5.56 0 l0 2.96 l-5.56 0 l0 2.54 l4.16 0 l0 2.9 l-4.16 0 l0 2.64 z M76.98 6 l0 14 l-3.22 0 l0 -14 l3.22 0 z M91.9 6 l3.22 0 l0 14 l-2.46 0 l-6.56 -8.14 l0 8.14 l-3.22 0 l0 -14 l2.5 0 l6.52 8.14 l0 -8.14 z M110.64000000000001 6 l0 2.96 l-3.4 0 l0 11.04 l-3.22 0 l0 -11.04 l-3.4 0 l0 -2.96 l10.02 0 z M119.36000000000001 17.04 l5.74 0 l0 2.96 l-6.14 0 l-2.82 0 l0 -14 l3.22 0 l5.56 0 l0 2.96 l-5.56 0 l0 2.54 l4.16 0 l0 2.9 l-4.16 0 l0 2.64 z M133.92 17.04 l5.32 0 l0 2.96 l-8.54 0 l0 -14 l3.22 0 l0 11.04 z">
        </path>
    </g>
</svg>